<svg width="202" height="42" viewBox="0 0 202 42" fill="none" xmlns="http://www.w3.org/2000/svg">
<g clip-path="url(#clip0_3481_372)">
<path d="M66.5245 26.5202C62.4988 26.5202 61.7869 23.6128 61.7869 19.8843C61.7869 16.1873 62.4988 13.249 66.5245 13.249C69.6524 13.249 70.7366 14.9235 71.0153 17.3877H75.506C75.506 13.2166 73.0896 9.51953 66.5245 9.51953C59.0617 9.51953 57.3582 14.3549 57.3582 19.8843C57.3582 25.4143 58.9689 30.2497 66.5245 30.2497C73.1833 30.2497 75.5362 26.7737 75.5362 22.3491H71.0153C70.7059 24.8776 69.6841 26.5202 66.5245 26.5202Z" fill="white"/>
<path d="M84.3297 26.8678C82.2544 26.8678 81.4185 26.0781 81.4185 24.9722C81.4185 24.1193 82.0695 23.5815 84.2677 23.3285L87.8289 22.9178C87.7971 25.0355 87.2097 26.8678 84.3297 26.8678ZM84.5464 13.5642C78.8479 13.5642 77.5168 16.2506 77.5168 19.5682L81.7289 19.5369C81.7289 17.9564 82.3783 16.9138 84.6391 16.9138C86.993 16.9138 87.7971 17.831 87.8289 20.0109L83.6173 20.3898C78.9719 20.8006 76.9897 22.1281 76.9897 25.1933C76.9897 28.6693 79.7775 30.2498 83.3079 30.2498C86.5285 30.2498 88.3861 28.8904 89.3157 27.4056L90.2755 29.9963H92.0712V20.833C92.0712 16.5349 91.1421 13.5642 84.5464 13.5642Z" fill="white"/>
<path d="M102.044 26.6159C99.0087 26.6159 98.5754 24.6555 98.5754 21.9702C98.5754 19.1261 99.1024 17.1035 102.106 17.1035C104.986 17.1035 105.76 19.1893 105.76 21.9702C105.76 24.7512 104.986 26.6159 102.044 26.6159ZM103.252 13.5642C99.7836 13.5642 98.1426 14.8604 97.1505 16.5041L96.2225 13.8172H94.395V36.3164H98.6071V28.2585C99.2571 29.2066 100.65 30.2498 103.375 30.2498C108.393 30.2498 110.096 26.3305 110.096 21.9702C110.096 17.7045 108.237 13.5642 103.252 13.5642Z" fill="white"/>
<path d="M129.032 13.5642C126.12 13.5642 124.85 14.9869 124.325 15.9663C123.487 14.3858 122.032 13.5642 119.927 13.5642C116.923 13.5642 115.405 15.1447 114.756 16.4716L113.795 13.8172H111.969V29.9963H116.211V20.1379C116.211 18.5575 116.675 17.23 118.657 17.23C120.639 17.23 120.98 18.5261 120.98 20.0747V29.9963H125.284V20.0747C125.284 18.4942 125.718 17.23 127.669 17.23C129.651 17.23 129.991 18.5261 129.991 20.0747V29.9963H134.296V20.359C134.296 16.7559 133.367 13.5642 129.032 13.5642Z" fill="white"/>
<path d="M143.204 26.8678C141.128 26.8678 140.293 26.0781 140.293 24.9722C140.293 24.1193 140.943 23.5815 143.142 23.3285L146.703 22.9178C146.671 25.0355 146.084 26.8678 143.204 26.8678ZM143.42 13.5642C137.721 13.5642 136.391 16.2506 136.391 19.5682L140.602 19.5369C140.602 17.9564 141.252 16.9138 143.513 16.9138C145.867 16.9138 146.671 17.831 146.703 20.0109L142.491 20.3898C137.846 20.8006 135.864 22.1281 135.864 25.1933C135.864 28.6693 138.651 30.2498 142.182 30.2498C145.402 30.2498 147.26 28.8904 148.189 27.4056L149.15 29.9963H150.945V20.833C150.945 16.5349 150.016 13.5642 143.42 13.5642Z" fill="white"/>
<path d="M158.215 9.7728H154.097V13.8807L151.774 15.2082V17.3567H154.097V24.6244C154.097 29.6176 156.759 30.6283 162.395 30.1538V26.6156C159.422 26.8367 158.339 26.3935 158.339 24.5936V17.3567H162.395V13.8174H158.215V9.7728Z" fill="white"/>
<path d="M168.039 13.8176H163.765V29.9967H168.039V13.8176Z" fill="white"/>
<path d="M165.901 6.73853C164.322 6.73853 163.177 7.18175 163.177 8.98326C163.177 10.7523 164.26 11.1939 165.901 11.1939C167.48 11.1939 168.565 10.7523 168.565 8.98326C168.565 7.18175 167.48 6.73853 165.901 6.73853Z" fill="white"/>
<path d="M177.441 26.5527C174.591 26.5527 173.786 24.5609 173.786 21.8756C173.786 19.2201 174.591 17.23 177.503 17.23C180.475 17.23 181.219 19.3158 181.219 21.8756C181.219 24.5933 180.351 26.5527 177.441 26.5527ZM177.503 13.5642C171.341 13.5642 169.606 17.6089 169.606 21.8756C169.606 26.1727 171.309 30.2498 177.441 30.2498C183.604 30.2498 185.399 26.2359 185.399 21.8756C185.399 17.6089 183.604 13.5642 177.503 13.5642Z" fill="white"/>
<path d="M195.9 13.5642C192.431 13.5642 191.006 14.6701 189.923 16.3452L188.932 13.8172H187.167V29.9963H191.409V20.9271C191.409 18.5883 191.998 17.1981 194.661 17.1981C197.293 17.1981 197.757 18.5261 197.757 20.833V29.9963H202V21.1806C202 16.6619 200.916 13.5642 195.9 13.5642Z" fill="white"/>
<path d="M12.4854 20.9872L24.653 8.57169H9.07048C8.29025 8.57169 7.54179 8.88789 6.98985 9.45109L0.861287 15.7048C0.309867 16.2675 0 17.0307 0 17.8268V24.147C0 24.9432 0.309867 25.7069 0.861812 26.2701L4.08501 29.5591L16.277 42L24.6774 33.4281L12.4854 20.9872Z" fill="#9FBF3B"/>
<mask id="mask0_3481_372" style="mask-type:luminance" maskUnits="userSpaceOnUse" x="5" y="20" width="20" height="22">
<path d="M6.16426 27.4373C5.01588 28.6091 5.01588 30.5085 6.16426 31.6809L16.2772 41.9997L24.6776 33.4278L12.4856 20.9874L6.16426 27.4373Z" fill="white"/>
</mask>
<g mask="url(#mask0_3481_372)">
<path d="M24.6776 20.9874H5.01587V41.9997H24.6776V20.9874Z" fill="url(#paint0_linear_3481_372)"/>
</g>
<path d="M48.4684 15.7303L45.2452 12.4413L33.0533 0.000427246L24.6528 8.57237L36.8448 21.0133L24.6772 33.4288H40.2597C41.04 33.4288 41.7884 33.1126 42.3404 32.5494L48.469 26.2951C49.0204 25.7325 49.3302 24.9693 49.3302 24.1736V17.8534C49.3302 17.0573 49.0204 16.2935 48.4684 15.7303Z" fill="#9FBF3B"/>
<mask id="mask1_3481_372" style="mask-type:luminance" maskUnits="userSpaceOnUse" x="24" y="0" width="21" height="22">
<path d="M24.6528 8.57248L36.8448 21.0134L43.1662 14.5629C44.314 13.3911 44.314 11.4912 43.1662 10.3194L33.0533 0L24.6528 8.57248Z" fill="white"/>
</mask>
<g mask="url(#mask1_3481_372)">
<path d="M44.314 0H24.6528V21.0134H44.314V0Z" fill="url(#paint1_linear_3481_372)"/>
</g>
</g>
<defs>
<linearGradient id="paint0_linear_3481_372" x1="5.30293" y1="31.4936" x2="24.6773" y2="31.4936" gradientUnits="userSpaceOnUse">
<stop stop-color="#79AD42"/>
<stop offset="0.0577727" stop-color="#79AD42"/>
<stop offset="0.328438" stop-color="#8CB63E"/>
<stop offset="0.524136" stop-color="#9EBF3B"/>
<stop offset="1" stop-color="#9EBF3B"/>
</linearGradient>
<linearGradient id="paint1_linear_3481_372" x1="24.6528" y1="10.5067" x2="44.0272" y2="10.5067" gradientUnits="userSpaceOnUse">
<stop stop-color="#9EBF3B"/>
<stop offset="0.475864" stop-color="#9EBF3B"/>
<stop offset="0.942227" stop-color="#79AD42"/>
<stop offset="1" stop-color="#79AD42"/>
</linearGradient>
<clipPath id="clip0_3481_372">
<rect width="202" height="42" fill="white"/>
</clipPath>
</defs>
</svg>
